<?xml version="1.0" encoding="UTF-8"?>
<svg xmlns="http://www.w3.org/2000/svg" xmlns:xlink="http://www.w3.org/1999/xlink" width="40px" height="40px" viewBox="0 0 40 40" version="1.1">
<g id="surface1">
<path style=" stroke:none;fill-rule:nonzero;fill:rgb(0%,63.921569%,55.686275%);fill-opacity:1;" d="M 39.914062 14.898438 C 39.914062 11.675781 37.914062 8.925781 35.085938 7.800781 C 35.085938 7.800781 34.976562 7.75 34.914062 7.738281 C 34.875 7.726562 34.824219 7.699219 34.789062 7.6875 C 34.648438 7.636719 34.523438 7.601562 34.386719 7.5625 C 34.386719 7.5625 34.375 7.5625 34.363281 7.5625 C 34.238281 7.523438 34.125 7.5 34 7.476562 C 33.976562 7.476562 33.9375 7.460938 33.914062 7.449219 C 33.886719 7.4375 33.851562 7.449219 33.824219 7.425781 C 33.761719 7.425781 33.699219 7.398438 33.636719 7.386719 C 33.574219 7.386719 33.511719 7.363281 33.449219 7.351562 C 33.324219 7.335938 33.199219 7.3125 33.0625 7.300781 C 33 7.300781 32.9375 7.300781 32.875 7.289062 C 32.8125 7.289062 32.75 7.289062 32.675781 7.289062 C 32.675781 7.289062 32.664062 7.289062 32.648438 7.289062 C 32.523438 7.289062 32.414062 7.289062 32.289062 7.289062 L 32.085938 7.289062 C 27.925781 7.289062 24.1875 9.1875 21.675781 12.136719 C 20 14.105469 20 14.105469 21.675781 12.136719 C 24.1875 9.1875 21.648438 12.164062 21.648438 12.175781 C 20.5625 13.199219 19.960938 14.925781 19.960938 14.925781 C 19.710938 14.351562 19.335938 13.613281 18.773438 12.824219 C 18.625 12.613281 18.074219 11.863281 17.210938 11.039062 C 14.789062 8.75 11.988281 7.925781 11.523438 7.789062 C 10.335938 7.449219 9.085938 7.273438 7.800781 7.273438 L 7.648438 7.273438 C 6.675781 7.273438 5.738281 7.460938 4.886719 7.789062 C 4.886719 7.789062 4.875 7.789062 4.863281 7.789062 C 2.023438 8.898438 0.0117188 11.664062 0.0117188 14.898438 C 0.0117188 18.136719 2.199219 21.136719 5.238281 22.148438 C 4.648438 22.863281 4.1875 23.6875 3.886719 24.574219 C 3.625 25.335938 3.488281 26.164062 3.488281 27.011719 C 3.488281 31.226562 6.914062 34.648438 11.125 34.648438 C 14.863281 34.648438 18.148438 32.664062 19.976562 29.6875 C 21.800781 32.664062 25.085938 34.648438 28.824219 34.648438 C 33.039062 34.648438 36.460938 31.226562 36.460938 27.011719 C 36.460938 26.164062 36.324219 25.335938 36.0625 24.574219 C 36.023438 24.460938 35.988281 24.351562 35.9375 24.238281 C 35.914062 24.1875 35.898438 24.125 35.875 24.074219 C 35.738281 23.75 35.574219 23.425781 35.398438 23.125 C 35.375 23.085938 35.351562 23.050781 35.324219 23.011719 C 35.300781 22.976562 35.289062 22.949219 35.261719 22.914062 C 35.238281 22.875 35.210938 22.835938 35.1875 22.789062 C 35.148438 22.738281 35.113281 22.6875 35.085938 22.636719 C 35.0625 22.601562 35.039062 22.5625 35.011719 22.523438 C 34.988281 22.488281 34.949219 22.4375 34.914062 22.398438 C 34.875 22.363281 34.851562 22.3125 34.8125 22.273438 C 34.773438 22.238281 34.75 22.1875 34.710938 22.148438 C 37.75 21.136719 39.9375 18.273438 39.9375 14.898438 Z M 4.1875 17.738281 C 4.1875 17.738281 4.136719 17.675781 4.113281 17.648438 C 4.085938 17.625 4.0625 17.585938 4.050781 17.5625 C 4.011719 17.511719 3.976562 17.449219 3.9375 17.398438 C 3.449219 16.6875 3.164062 15.824219 3.164062 14.898438 C 3.164062 12.4375 5.175781 10.425781 7.636719 10.425781 L 7.789062 10.425781 C 13.050781 10.425781 17.425781 14.3125 18.199219 19.375 L 7.636719 19.375 C 7.5625 19.375 7.488281 19.375 7.425781 19.375 C 7.425781 19.375 7.398438 19.375 7.398438 19.375 C 6.261719 19.3125 5.25 18.835938 4.5 18.085938 C 4.386719 17.988281 4.289062 17.875 4.199219 17.75 Z M 11.113281 31.476562 C 8.648438 31.476562 6.636719 29.460938 6.636719 27 C 6.636719 26.101562 6.898438 25.261719 7.363281 24.5625 C 8.164062 23.335938 9.539062 22.523438 11.113281 22.523438 L 18.3125 22.523438 L 18.3125 24.261719 C 18.3125 24.363281 18.3125 24.460938 18.3125 24.550781 C 18.164062 28.386719 14.988281 31.460938 11.113281 31.460938 Z M 28.9375 22.539062 C 28.9375 22.539062 29 22.539062 29.039062 22.539062 C 29.074219 22.539062 29.113281 22.539062 29.148438 22.539062 C 29.351562 22.550781 29.550781 22.574219 29.738281 22.625 C 29.761719 22.625 29.789062 22.625 29.8125 22.636719 C 29.886719 22.648438 29.976562 22.675781 30.050781 22.699219 C 30.074219 22.699219 30.113281 22.710938 30.136719 22.726562 C 30.210938 22.75 30.273438 22.773438 30.335938 22.800781 C 30.449219 22.835938 30.5625 22.886719 30.664062 22.9375 C 30.6875 22.9375 30.710938 22.960938 30.738281 22.976562 C 30.800781 23 30.863281 23.039062 30.925781 23.074219 C 30.960938 23.101562 31 23.113281 31.039062 23.136719 C 31.125 23.1875 31.210938 23.25 31.300781 23.300781 C 31.324219 23.324219 31.363281 23.335938 31.386719 23.363281 C 31.539062 23.460938 31.675781 23.574219 31.800781 23.699219 C 31.824219 23.726562 31.851562 23.75 31.875 23.773438 C 31.898438 23.800781 31.925781 23.824219 31.949219 23.851562 C 32 23.898438 32.050781 23.949219 32.101562 24 C 32.125 24.023438 32.148438 24.050781 32.175781 24.074219 C 32.199219 24.101562 32.226562 24.125 32.238281 24.148438 C 32.351562 24.273438 32.449219 24.414062 32.539062 24.5625 C 33 25.261719 33.261719 26.101562 33.261719 27 C 33.261719 29.460938 31.25 31.476562 28.789062 31.476562 C 24.914062 31.476562 21.75 28.398438 21.585938 24.5625 C 21.585938 24.460938 21.585938 24.375 21.585938 24.273438 L 21.585938 22.539062 L 28.789062 22.539062 C 28.789062 22.539062 28.875 22.539062 28.925781 22.539062 Z M 32.273438 19.363281 L 21.726562 19.363281 C 22.324219 15.375 25.1875 12.101562 28.960938 10.914062 C 29.148438 10.851562 29.335938 10.800781 29.523438 10.75 C 29.601562 10.726562 29.675781 10.710938 29.75 10.699219 C 29.898438 10.664062 30.050781 10.636719 30.210938 10.601562 C 30.335938 10.574219 30.449219 10.5625 30.574219 10.539062 C 30.625 10.539062 30.675781 10.523438 30.726562 10.511719 C 30.949219 10.476562 31.1875 10.460938 31.414062 10.4375 C 31.574219 10.4375 31.738281 10.414062 31.898438 10.414062 C 31.988281 10.414062 32.0625 10.414062 32.148438 10.414062 L 32.300781 10.414062 C 32.449219 10.414062 32.601562 10.414062 32.75 10.4375 C 32.8125 10.4375 32.875 10.449219 32.9375 10.460938 C 32.9375 10.460938 32.949219 10.460938 32.960938 10.460938 C 33.039062 10.460938 33.101562 10.488281 33.164062 10.5 C 33.226562 10.511719 33.300781 10.523438 33.363281 10.550781 C 33.425781 10.5625 33.5 10.585938 33.5625 10.601562 C 33.625 10.613281 33.675781 10.636719 33.738281 10.648438 C 35.5 11.25 36.761719 12.925781 36.761719 14.886719 C 36.761719 17.351562 34.75 19.363281 32.289062 19.363281 Z M 32.273438 19.363281 "/>
<path style=" stroke:none;fill-rule:nonzero;fill:rgb(0%,63.921569%,55.686275%);fill-opacity:1;" d="M 4.488281 18.074219 C 5.238281 18.824219 6.261719 19.300781 7.386719 19.363281 C 6.1875 19.3125 5.226562 18.8125 4.488281 18.074219 Z M 4.488281 18.074219 "/>
<path style=" stroke:none;fill-rule:nonzero;fill:rgb(0%,63.921569%,55.686275%);fill-opacity:1;" d="M 4.1875 17.75 C 4.1875 17.75 4.101562 17.636719 4.050781 17.574219 C 4.101562 17.636719 4.136719 17.699219 4.1875 17.75 Z M 4.1875 17.75 "/>
<path style=" stroke:none;fill-rule:nonzero;fill:rgb(0%,63.921569%,55.686275%);fill-opacity:1;" d="M 20.425781 11 C 20.425781 9.050781 21.4375 7.164062 22.949219 5.925781 C 23.363281 5.625 23.851562 5.386719 24.375 5.351562 C 24.5625 5.375 24.773438 5.511719 25.050781 5.960938 C 25.023438 6.5 24.960938 6.726562 24.863281 6.835938 C 24.300781 7.199219 23.675781 7.386719 23.074219 7.6875 C 22.335938 8.101562 21.761719 8.726562 21.261719 9.425781 C 20.9375 9.914062 20.636719 10.449219 20.425781 11.011719 Z M 20.425781 11 "/>
<path style=" stroke:none;fill-rule:nonzero;fill:rgb(0%,63.921569%,55.686275%);fill-opacity:1;" d="M 19.523438 11 C 19.113281 9.925781 18.425781 8.886719 17.550781 8.148438 C 16.851562 7.5 15.875 7.351562 15.085938 6.835938 C 14.988281 6.726562 14.914062 6.5 14.898438 5.960938 C 15.164062 5.511719 15.386719 5.375 15.574219 5.351562 C 16.085938 5.386719 16.585938 5.625 17 5.925781 C 18.523438 7.164062 19.539062 9.050781 19.523438 11 Z M 19.523438 11 "/>
</g>
</svg>
