<svg xmlns="http://www.w3.org/2000/svg" xmlns:xlink="http://www.w3.org/1999/xlink" width="60" height="60" viewBox="0 0 278.4200439453125 278.4100341796875" fill="none"><g opacity="1"  transform="translate(0 0)  rotate(0)"><g opacity="1"  transform="translate(0 0)  rotate(0)"><path id="路径 39" fill-rule="evenodd" style="fill:#FFFFFF" opacity="1" d="M278.42 225.23L278.42 53.19C278.42 23.94 254.48 0 225.23 0L53.19 0C23.94 0 0 23.94 0 53.19L0 225.22C0 254.47 23.94 278.41 53.19 278.41L225.23 278.41C254.48 278.41 278.42 254.48 278.42 225.23Z"></path><path id="路径 47" fill-rule="evenodd" style="fill:#0079FF" opacity="1" d="M222.9,111.773c8.1,12.94 12.73,27.93 12.72,43.9c0,48.8 -43.17,88.37 -96.41,88.37c-53.2499,0 -96.41,-39.56 -96.41,-88.37c0,-22.9 9.5101,-43.77 25.1,-59.4695c0.72,-0.72 1.4201,-1.46 2.1,-2.21c3.8,-4.19 8.56,-8.57 15.2901,-13.86c7.98,-6.28 19.3799,-13.96 34.2199,-23.06c0.29,-0.18 0.67,-0.08 0.85,0.21c0.08,0.14 0.11,0.3 0.07,0.46c-1.48,6.45 -0.8,12.35 2.04,17.68c4.58,8.6 13.17,12.1 13.82,11.03c0.65,-1.07 -3.87,-10.03 -3.87,-24.22c0,-9.26 2.96,-18.46 8.88,-27.59c0.19,-0.29 0.57,-0.37 0.86,-0.18c0.03,0.01 0.05,0.03 0.07,0.05l26.67,23.36l26.07,21.83c12.23,10.12 21.54,20.8095 27.93,32.0695zM209.67,152.383c0,-1.49 -0.14,-2.97 -0.42,-4.43c-2.45,-12.74 -14.75,-21.08 -27.49,-18.64c-13.53,2.59 -27.92,3.89 -43.16,3.89c-15.24,0 -29.63,-1.29 -43.16,-3.89c-1.46,-0.28 -2.94,-0.42 -4.43,-0.42c-12.9699,0 -23.48,10.52 -23.48,23.49v7.08c0,23.18 17.4301,42.65 40.47,45.2c10.27,1.14 20.55,1.71 30.83,1.71c10.12,0 20.21,-0.56 30.28,-1.66c23.08,-2.53 40.56,-22.03 40.56,-45.25z"></path><path id="矩形_9_" fill-rule="evenodd" style="fill:#0079FF" opacity="1" d="M103.87,150.427h2.92c5.04,0 9.12,4.08 9.12,9.12v12c0,5.04 -4.08,9.12 -9.12,9.12h-2.92c-5.04,0 -9.12,-4.08 -9.12,-9.12v-12c0,-5.04 4.08,-9.12 9.12,-9.12z"></path><path id="矩形备份_8_" fill-rule="evenodd" style="fill:#0079FF" opacity="1" d="M170.41,150.427h2.92c5.04,0 9.12,4.08 9.12,9.12v12c0,5.04 -4.08,9.12 -9.12,9.12h-2.92c-5.04,0 -9.12,-4.08 -9.12,-9.12v-12c-0.01,-5.04 4.08,-9.12 9.12,-9.12z"></path></g></g></svg>