<!--
  - Copyright (c) 2008-2021 Haulmont. All rights reserved.
  - Use is subject to license terms, see http://www.cuba-platform.com/commercial-software-license for details.
  -->

<svg width="40" height="40" viewBox="0 0 40 40" fill="none" xmlns="http://www.w3.org/2000/svg">
<g clip-path="url(#clip0)">
<path d="M20.0015 40.003C31.048 40.003 40.003 31.048 40.003 20.0015C40.003 8.95497 31.048 0 20.0015 0C8.95497 0 0 8.95497 0 20.0015C0 31.048 8.95497 40.003 20.0015 40.003Z" fill="white"/>
<path d="M13.578 21.547L13.5959 21.4246C13.5957 21.3819 13.5957 21.3391 13.5959 21.2963C13.5959 21.2784 13.5959 21.2605 13.5959 21.2396C13.5959 21.2188 13.5959 21.2038 13.5959 21.183C13.5959 21.1173 13.5959 21.0487 13.5959 20.9771C13.5959 20.9592 13.5959 20.9383 13.5959 20.9204C13.5959 20.9025 13.5959 20.8548 13.5959 20.8249C13.5974 20.8081 13.5974 20.7911 13.5959 20.7742C13.5959 20.7384 13.5959 20.7026 13.5959 20.6668C13.5974 20.6489 13.5974 20.631 13.5959 20.6131C13.5959 20.5684 13.5959 20.5236 13.575 20.4789C13.5736 20.454 13.5736 20.4291 13.575 20.4043L13.5571 20.3297V20.2849V20.2521L13.5303 20.1656C13.5257 20.1443 13.5197 20.1234 13.5124 20.1029C13.4915 20.0433 13.4706 19.9866 13.4467 19.9269C13.4284 19.8771 13.4075 19.8283 13.3841 19.7807C13.3841 19.7509 13.3572 19.721 13.3423 19.6912C13.3274 19.6614 13.3035 19.6106 13.2797 19.5689L13.22 19.4585L13.1424 19.3929L13.1007 19.3272L13.0828 19.3004L13.0171 19.2019L12.9962 19.1691V19.1512L12.9574 19.0945L12.9216 19.0438L12.9067 19.0229L12.859 18.9602C12.852 18.9486 12.844 18.9376 12.8351 18.9274L12.7158 18.7812C12.6915 18.751 12.6656 18.7221 12.6382 18.6947C12.6382 18.6947 12.6382 18.6947 12.6382 18.6947L12.5577 18.6052L12.4711 18.5157L12.4115 18.456L12.3488 18.3964C12.2444 18.2979 12.137 18.2024 12.0236 18.098C11.9102 17.9936 11.8267 17.9458 11.7253 17.8772C11.3386 17.6116 10.9022 17.4269 10.4423 17.3342H10.4125H10.3021C10.0786 17.3046 9.8514 17.3198 9.63381 17.379C9.35303 17.4616 9.10489 17.6294 8.92373 17.8593L8.89688 17.8951C8.79927 18.0238 8.71809 18.1641 8.65522 18.3128C8.32703 19.0706 8.39267 19.8493 8.54781 20.8309C8.68171 21.2337 8.84835 21.6248 9.04606 22.0004C9.10871 22.1049 9.17435 22.2063 9.24893 22.2988C9.38065 22.4789 9.52845 22.6467 9.6905 22.8C9.88199 22.9868 10.099 23.1455 10.3349 23.2714C10.7039 23.4574 11.1161 23.5409 11.5283 23.5131C11.7802 23.4953 12.0283 23.4421 12.2653 23.355C12.2916 23.3473 12.3175 23.3384 12.3428 23.3281L12.3936 23.3072H12.4323C12.6177 23.22 12.7855 23.0997 12.9276 22.9522C13.2752 22.5685 13.4997 22.0894 13.572 21.5768L13.578 21.547Z" fill="#07B0E5"/>
<path d="M19.3571 14.4104C19.4703 14.7259 19.6216 15.0265 19.8076 15.3054C20.4341 16.2512 21.8095 16.7524 22.8985 16.105C22.9791 16.0543 23.0566 16.0036 23.1312 15.9469C23.3598 15.7801 23.5612 15.5788 23.7279 15.3502C23.7548 15.3173 23.7786 15.2815 23.8025 15.2457L23.8473 15.1771C23.8681 15.1443 23.889 15.1115 23.9069 15.0787L23.9487 15.0041C23.9695 14.9709 23.9875 14.9359 24.0024 14.8997C24.0203 14.8639 24.0382 14.8281 24.0531 14.7923C24.0612 14.78 24.0682 14.767 24.074 14.7535L24.0919 14.7117C24.1068 14.6729 24.1217 14.6401 24.1337 14.6013C24.1404 14.5891 24.1455 14.5761 24.1486 14.5625C24.3501 13.9886 24.4294 13.3788 24.3813 12.7724C24.3813 12.7217 24.3813 12.674 24.3813 12.6262C24.3813 12.5785 24.3813 12.4562 24.3545 12.3726C24.2888 12.1876 24.2202 11.9997 24.1456 11.8117C23.9277 11.2244 23.6063 10.6807 23.1969 10.2066C23.1551 10.1588 23.1074 10.1111 23.0626 10.0634C23.0178 10.0156 22.9641 9.9679 22.9134 9.92614C22.559 9.58329 22.0904 9.38353 21.5977 9.36523C21.487 9.3657 21.3768 9.37972 21.2695 9.407C21.2389 9.4132 21.209 9.42219 21.18 9.43386C20.897 9.52861 20.6445 9.69758 20.449 9.92315C20.3291 10.0583 20.2232 10.2053 20.1328 10.3617C20.091 10.4333 20.0522 10.5079 20.0134 10.5825C19.9637 10.678 19.916 10.7774 19.8702 10.8809C19.7654 11.1146 19.6728 11.3536 19.5928 11.5969C19.5033 11.8565 19.4287 12.119 19.3601 12.3846C19.3332 12.483 19.3093 12.5844 19.2855 12.6829C19.2566 12.8119 19.2347 12.9424 19.2198 13.0737C19.2034 13.2494 19.2034 13.4262 19.2198 13.6018C19.2307 13.8761 19.2768 14.1479 19.3571 14.4104V14.4104Z" fill="#07B0E5"/>
<path d="M12.2026 14.5715C12.2169 14.7887 12.2499 15.0043 12.3011 15.2159C12.3801 15.5302 12.5037 15.8316 12.668 16.111C12.7575 16.2637 12.8572 16.4102 12.9664 16.5496C13.035 16.6331 13.1066 16.7137 13.1812 16.7942L13.2856 16.8986C13.4067 17.0169 13.5342 17.1285 13.6675 17.2328C13.7143 17.2712 13.7631 17.3071 13.8137 17.3402L13.8913 17.3939L13.9569 17.4327L14.0315 17.4774L14.118 17.5222H14.1508L14.1807 17.5401L14.2254 17.561C14.2751 17.5844 14.3258 17.6053 14.3776 17.6236L14.4343 17.6445L14.5536 17.6803H14.6103L14.7058 17.7042L14.7983 17.7221H14.8997C15.2355 17.7596 15.5754 17.7258 15.8972 17.623C16.219 17.5202 16.5155 17.3506 16.7674 17.1254C17.1574 16.7977 17.4556 16.3745 17.6329 15.897C17.8102 15.4195 17.8604 14.9042 17.7788 14.4014C17.7774 14.3875 17.7774 14.3735 17.7788 14.3597C17.7519 14.2344 17.7221 14.109 17.6893 13.9897L17.6356 13.8077C17.6177 13.748 17.5968 13.6884 17.5759 13.6287C17.5772 13.6128 17.5772 13.5968 17.5759 13.581C17.5192 13.4199 17.4536 13.2647 17.385 13.1126C17.3163 12.9604 17.2716 12.8739 17.2089 12.7605L17.1672 12.6859C16.9736 12.3386 16.7414 12.0144 16.475 11.7192L16.4571 11.6984C16.287 11.51 16.1014 11.3364 15.9022 11.1792C15.7491 11.0603 15.5875 10.9526 15.4188 10.857C15.1463 10.6973 14.8518 10.5787 14.5447 10.505C14.1661 10.3968 13.7614 10.4276 13.4036 10.5917C13.0457 10.7559 12.7584 11.0426 12.5934 11.4C12.4509 11.6749 12.3503 11.9695 12.2951 12.2742C12.2951 12.2742 12.2951 12.2921 12.2951 12.301C12.2443 12.5731 12.2114 12.8481 12.1966 13.1245C12.1713 13.5398 12.1713 13.9563 12.1966 14.3716C12.1996 14.482 12.1996 14.5267 12.2026 14.5715Z" fill="#07B0E5"/>
<path d="M27.4483 22.6747L27.2842 22.5345C26.9858 22.2719 26.6576 22.0094 26.3414 21.7468L25.7238 21.2367C24.5662 20.2879 23.4146 19.363 22.2958 18.4023C21.35 17.6027 20.3117 17.3551 18.999 17.6027C17.7847 17.7728 17.0955 18.7275 16.5405 19.8195C16.0572 20.7742 15.5799 21.7349 15.1025 22.6926C14.9623 22.9731 14.825 23.2535 14.6848 23.531C14.649 23.5996 14.6162 23.6652 14.5834 23.7339L14.0404 24.8139C13.9926 24.9034 13.9479 24.9959 13.9001 25.0884L13.6227 25.6284L13.5928 25.6881L13.5302 25.8193C13.3418 26.19 13.2158 26.5892 13.1572 27.0008C13.1156 27.2657 13.1156 27.5355 13.1572 27.8004C13.2135 28.0935 13.312 28.3769 13.4496 28.6417C13.5932 28.9314 13.7737 29.2012 13.9867 29.4443C14.2858 29.805 14.6619 30.0942 15.0872 30.2909C15.5126 30.4876 15.9765 30.5867 16.4451 30.581C16.6029 30.5713 16.7596 30.5484 16.9135 30.5124C17.0119 30.4885 17.1074 30.4617 17.2118 30.4319C17.4832 30.3527 17.7501 30.259 18.0114 30.1514C18.4052 29.9903 18.7931 29.8083 19.178 29.6263L19.5807 29.4383L19.9298 29.2802L20.1983 29.1668C20.6657 28.9639 21.154 28.8128 21.6543 28.7163C21.9298 28.6648 22.2094 28.6389 22.4897 28.6388C22.7542 28.6388 23.0198 28.6388 23.2863 28.6388C23.6085 28.6388 23.9337 28.6596 24.2559 28.6746C24.5781 28.6895 24.8228 28.7074 25.1032 28.7283C25.6365 28.7675 26.1717 28.6836 26.6674 28.4828C27.163 28.2821 27.6058 27.97 27.9614 27.5707C28.1873 27.3202 28.3717 27.0351 28.5074 26.7263C28.5074 26.6935 28.5343 26.6637 28.5462 26.6309L28.585 26.5384C28.6327 26.4071 28.6745 26.2818 28.7103 26.1535C28.7866 25.8763 28.8277 25.5906 28.8326 25.3032C28.8367 25.0387 28.8056 24.7748 28.7401 24.5185C28.5871 23.9657 28.2919 23.4627 27.8839 23.0596C27.7944 22.9671 27.6959 22.8776 27.5855 22.7881L27.4483 22.6747Z" fill="#07B0E5"/>
<path d="M29.0236 15.8723C28.9671 15.7493 28.9033 15.6297 28.8326 15.5143V15.5143C28.6821 15.2559 28.4788 15.0323 28.2359 14.8579C28.0096 14.6975 27.737 14.6153 27.4597 14.6239C27.1823 14.6325 26.9154 14.7314 26.6994 14.9056C26.6576 14.9355 26.6159 14.9653 26.5741 15.0011C26.5196 15.0425 26.4678 15.0874 26.419 15.1354C26.3143 15.2357 26.2147 15.3413 26.1206 15.4516C25.886 15.7115 25.6855 16.0003 25.5239 16.3109C25.4762 16.4093 25.4314 16.5078 25.3897 16.6092C25.2453 16.9694 25.1577 17.3499 25.1301 17.737C25.1137 17.9535 25.1137 18.1709 25.1301 18.3874C25.1574 18.6783 25.2437 18.9607 25.3838 19.2171C25.5238 19.4736 25.7146 19.6989 25.9446 19.8792C26.0444 19.9584 26.1513 20.0283 26.2638 20.088L26.3563 20.1357C26.4588 20.183 26.5645 20.2228 26.6726 20.2551C26.7882 20.2872 26.9076 20.3042 27.0276 20.3058C27.116 20.3132 27.2048 20.3132 27.2931 20.3058V20.3058C27.7015 20.2507 28.0872 20.0857 28.409 19.8284C28.517 19.7456 28.6169 19.6527 28.7073 19.551C28.7521 19.5003 28.7909 19.4495 28.8296 19.3958C28.8684 19.3421 28.9341 19.2467 28.9788 19.1721C29.2247 18.7699 29.3653 18.3123 29.3876 17.8414C29.3876 17.8056 29.3876 17.7668 29.3876 17.731C29.3908 17.5582 29.3778 17.3853 29.3488 17.2149C29.2746 16.7598 29.1658 16.3109 29.0236 15.8723V15.8723Z" fill="#07B0E5"/>
<path d="M32.8187 13.9688C32.3811 13.7699 31.9176 13.5819 31.4283 13.4049C31.5178 12.8947 31.5894 12.3965 31.6372 11.9132C32.0101 8.18974 31.1151 5.46579 29.0714 4.2873C28.3568 3.88311 27.5472 3.67711 26.7263 3.69059C25.0824 3.69059 23.1759 4.44841 21.1859 5.88944L20.8011 6.17288C20.5325 6.37874 20.267 6.59355 20.0045 6.81434C19.6076 6.48018 19.2138 6.1699 18.811 5.88944C16.8181 4.44841 14.9325 3.69656 13.2557 3.69656C12.4389 3.68535 11.6338 3.89127 10.9226 4.29326C8.88191 5.47175 7.98685 8.1957 8.35979 11.9161C8.40753 12.3965 8.47913 12.8918 8.56864 13.4079C8.07934 13.5849 7.6159 13.7729 7.17832 13.9718C3.77413 15.5143 1.86169 17.6415 1.86169 19.9895C1.86169 22.3376 3.77413 24.4947 7.18727 26.0341C7.62286 26.2311 8.08232 26.416 8.56864 26.5921C8.50598 26.9322 8.45526 27.2663 8.4135 27.5886C8.39162 27.7497 8.37372 27.9078 8.35979 28.0629C7.97194 31.8102 8.87594 34.5073 10.9226 35.6888C11.634 36.0901 12.439 36.296 13.2557 36.2855C14.9235 36.2855 16.8151 35.5337 18.8081 34.0956C19.1989 33.8152 19.5957 33.4989 20.0015 33.1707C20.267 33.3945 20.5325 33.6063 20.7981 33.8092C20.9274 33.9066 21.0556 34.0061 21.1829 34.1075C23.17 35.5456 25.0794 36.3034 26.7203 36.3034C27.5421 36.3166 28.3526 36.1106 29.0684 35.7067C31.1151 34.5133 32.0191 31.8281 31.6342 28.0838C31.6342 27.9257 31.5984 27.7855 31.5805 27.6094C31.5357 27.2813 31.485 26.9441 31.4224 26.598C31.9117 26.419 32.3751 26.2311 32.8127 26.0341C36.2258 24.4976 38.1383 22.3585 38.1383 20.0015C38.1383 17.6445 36.2258 15.5143 32.8187 13.9688ZM32.1324 23.2714C31.8699 23.3967 31.5954 23.522 31.306 23.6443L30.772 23.8532C30.6387 23.3898 30.4895 22.9223 30.3244 22.4509C30.0877 21.7647 29.8232 21.0686 29.5308 20.3625C29.3026 20.5844 29.0538 20.7842 28.7879 20.9592C28.4762 21.1478 28.137 21.2868 27.7825 21.3709C27.7825 21.3709 27.9585 21.541 28.0391 21.6096L28.1524 21.7051L28.3523 21.8781C28.481 21.9855 28.6035 22.1 28.7193 22.2212C28.9114 22.4242 29.0852 22.6439 29.2384 22.8776C29.5266 23.2869 29.7388 23.7447 29.865 24.2291L29.9038 24.3872C29.9708 24.6969 30.0019 25.0133 29.9962 25.33C29.9921 25.667 29.9491 26.0024 29.868 26.3295L29.8322 26.4697C29.8083 26.5622 29.7785 26.6547 29.7486 26.7502L29.6681 26.971C29.6681 27.0098 29.6382 27.0485 29.6233 27.0873L29.5726 27.2067C29.3967 27.6203 29.1571 28.0039 28.8625 28.3434C29.131 30.8824 28.6954 32.7232 27.6691 33.3109C27.3758 33.4709 27.0453 33.5501 26.7114 33.5407C25.7656 33.5407 24.5454 33.0573 23.2177 32.1653C22.976 32.0012 22.7284 31.8251 22.4778 31.6342C22.3286 31.5178 22.1794 31.4015 22.0332 31.2792C22.3644 30.9301 22.6956 30.5661 23.0208 30.1902L23.3191 29.8411H23.2386H22.5792H22.4599C22.2597 29.8422 22.06 29.8611 21.8632 29.8978C21.6265 29.9432 21.3932 30.005 21.165 30.0828L20.9562 30.1574L20.5952 30.3006L20.5475 30.3215L20.4162 30.3781H20.3923L20.0731 30.5243L19.9866 30.5631L19.6882 30.7093C19.2914 30.8973 18.8856 31.0882 18.462 31.2613C18.1636 31.3806 17.8891 31.4791 17.6266 31.5596L17.5281 31.6372C15.92 32.8664 14.4163 33.5437 13.2945 33.5437C12.9615 33.5532 12.632 33.4739 12.3398 33.3139C11.394 32.7709 10.9525 31.1449 11.1076 28.8864C11.1285 28.588 11.1583 28.2897 11.1971 27.9913C11.221 27.8034 11.2508 27.6154 11.2807 27.4274C11.5114 27.4831 11.7441 27.5368 11.9788 27.5886C11.9588 27.343 11.9638 27.0961 11.9937 26.8516C12.0258 26.6008 12.0797 26.3532 12.1548 26.1117C12.2408 25.8418 12.3465 25.5785 12.4711 25.3241L12.5457 25.1749L12.5785 25.1122C12.6173 25.0347 12.6561 24.9571 12.6978 24.8795C12.4562 24.8288 12.2145 24.7721 11.9788 24.7154L11.7879 24.6677C11.5969 24.62 11.406 24.5722 11.221 24.5215L11.1315 24.4976C10.7556 24.3932 10.3945 24.2828 10.0574 24.1694H10.0067L9.84558 24.0889C9.66956 24.0292 9.49651 23.9666 9.32347 23.9009L9.02512 23.7876L8.69693 23.6563C6.16094 22.5971 4.64531 21.2307 4.64531 19.9895C4.64531 18.8976 5.83872 17.7012 7.86453 16.7077C8.12708 16.5764 8.40454 16.4511 8.69693 16.3318C8.86997 16.2572 9.046 16.1885 9.22501 16.1199C9.46966 16.0274 9.71729 15.9379 9.96492 15.8574L10.0037 15.8425C10.2066 15.7738 10.4125 15.7082 10.6183 15.6455C10.8242 15.5829 10.9584 15.5441 11.1285 15.4994H11.1613C11.0943 15.2193 11.0534 14.9337 11.039 14.6461V14.4939C11.0105 14.0319 11.0105 13.5686 11.039 13.1066C11.059 12.7873 11.0979 12.4695 11.1553 12.1548V12.1131C11.1553 12.0743 11.1553 12.0325 11.1792 11.9907C10.8391 9.30557 11.2657 7.31557 12.3279 6.70096C12.6217 6.54273 12.952 6.46453 13.2856 6.47421C14.2254 6.47421 15.4427 6.95456 16.7644 7.84365C17.012 8.00774 17.2626 8.18974 17.5162 8.38366C17.6833 8.50897 17.8504 8.64323 18.0204 8.78346C17.6863 9.13153 17.3571 9.49552 17.0329 9.87542C16.9046 10.0246 16.7733 10.1738 16.645 10.3319C16.8925 10.5258 17.123 10.7404 17.3342 10.9734L17.3581 11.0002C17.5536 11.2139 17.735 11.4401 17.9011 11.6775H18.1457H18.3307C18.3725 11.5343 18.4172 11.397 18.459 11.2687C18.5306 11.0599 18.6082 10.854 18.6887 10.6541L18.8976 10.1439L18.9244 10.0932C18.9332 10.0737 18.9432 10.0548 18.9543 10.0365C18.996 9.95299 19.0408 9.87244 19.0855 9.79487C19.2144 9.56724 19.3674 9.35418 19.542 9.15938C19.7273 8.9523 19.9401 8.77161 20.1745 8.62235C20.3607 8.50385 20.5612 8.4096 20.7712 8.3419C20.8309 8.32101 20.8876 8.30609 20.9443 8.29118C21.1395 8.2426 21.3398 8.21755 21.541 8.21659H21.5648C21.8801 8.21725 22.1928 8.27174 22.4897 8.3777C24.1128 7.16042 25.6075 6.47421 26.7203 6.47421C27.0539 6.46523 27.384 6.54338 27.6781 6.70096C28.6208 7.24694 29.0654 8.87595 28.9103 11.1315C28.8884 11.4239 28.8585 11.7222 28.8207 12.0265C28.7939 12.2175 28.767 12.4054 28.7372 12.5904C28.2688 12.477 27.7884 12.3726 27.2962 12.2921C26.965 12.2264 26.6279 12.1668 26.2877 12.1131L26.0759 12.0802C25.8641 12.0444 25.6493 12.0146 25.4345 11.9848L25.4941 12.2294C25.4941 12.3219 25.518 12.4204 25.5269 12.5278C25.5359 12.6352 25.5269 12.6531 25.5448 12.7217C25.5873 13.3227 25.536 13.9266 25.3927 14.5118C25.4643 14.4342 25.5419 14.3567 25.6194 14.2821C25.697 14.2075 25.7776 14.1389 25.8521 14.0792L26.0341 13.9449C26.355 13.7189 26.72 13.5633 27.1052 13.4885C27.2451 13.4541 27.388 13.4331 27.5319 13.4258C28.0278 13.4297 28.5107 13.5848 28.9162 13.8704C29.0881 13.9921 29.247 14.131 29.3906 14.2851C29.5601 14.4686 29.7111 14.6684 29.8411 14.8818L30.0082 15.1801C30.038 15.2398 30.0679 15.2995 30.0947 15.3621C30.1757 15.5461 30.2406 15.7368 30.2886 15.932L30.7779 16.111C30.954 16.1796 31.13 16.2482 31.306 16.3228C33.839 17.379 35.3546 18.7454 35.3546 19.9776C35.3546 21.0905 34.1642 22.2898 32.1324 23.2714Z" fill="#004E7C"/>
</g>
<defs>
<clipPath id="clip0">
<rect width="40" height="40" fill="white"/>
</clipPath>
</defs>
</svg>
