<svg version="1.1" id="Layer_1" xmlns="http://www.w3.org/2000/svg" xmlns:xlink="http://www.w3.org/1999/xlink" x="0px" y="0px"
	 width="100%" viewBox="0 0 512 512" enable-background="new 0 0 512 512" xml:space="preserve">
<path fill="#FF7A4D" opacity="1.000000" stroke="none" 
	d="
M421.000000,513.000000 
	C366.645782,513.000000 312.291534,513.000000 257.468658,512.531372 
	C257.004608,481.702606 257.009216,451.342560 257.474854,420.988403 
	C270.491425,421.247955 282.713470,419.094208 294.696716,415.589478 
	C322.183716,407.550323 344.826477,392.167145 362.647064,369.819733 
	C382.200165,345.299713 391.720337,317.153625 391.951599,285.870087 
	C392.012451,277.635071 385.260468,271.167877 376.964996,271.018097 
	C371.972687,270.927917 366.977386,271.004669 361.515808,271.004456 
	C326.366394,270.944946 291.684601,270.887390 257.001984,270.371887 
	C256.994568,240.349701 256.987946,210.785538 257.428894,181.148270 
	C275.354187,180.951538 289.197174,172.606537 301.588226,161.294800 
	C304.217194,163.473862 306.487885,165.414536 308.819916,167.278519 
	C317.838348,174.487045 328.002563,179.663696 339.449951,180.826309 
	C361.021088,183.017075 378.935822,175.674835 392.544159,158.394089 
	C393.453827,157.238953 395.863037,156.664200 397.502045,156.787369 
	C404.746368,157.331757 411.949066,158.532471 419.196777,158.891418 
	C423.791504,159.118958 428.438812,158.284180 433.374634,158.049713 
	C435.803650,160.294098 437.984589,162.354996 440.026154,164.545776 
	C447.653107,172.730133 452.015259,182.249619 452.012695,193.623001 
	C451.991699,286.608246 452.003906,379.593506 451.982849,472.578766 
	C451.982452,474.379578 451.961823,476.249603 451.507294,477.970245 
	C447.430878,493.401123 438.578461,504.697754 423.272797,510.418976 
	C422.325928,510.772919 421.749054,512.116760 421.000000,513.000000 
z"/>
<path fill="#FF974D" opacity="1.000000" stroke="none" 
	d="
M257.013855,420.982483 
	C257.009216,451.342560 257.004608,481.702606 257.000000,512.531372 
	C202.979111,513.000000 148.958206,513.000000 94.781357,512.693115 
	C93.233635,511.627808 91.923866,510.589600 90.437508,510.154053 
	C74.622147,505.519745 61.816044,486.081421 61.862350,470.712036 
	C62.139992,378.556885 62.038067,286.400391 61.936584,194.244476 
	C61.927231,185.751450 63.986996,178.092072 68.998985,171.351532 
	C72.409248,166.765137 76.295601,162.532730 80.399178,158.073303 
	C89.225418,158.005447 98.034241,159.613235 105.910622,157.590393 
	C115.238098,155.194885 120.359146,158.510376 126.381706,164.581955 
	C135.573792,173.848862 147.260498,179.446548 160.285995,180.841263 
	C178.269073,182.766800 193.977509,176.565170 207.451187,164.891434 
	C211.030029,161.790726 213.011429,161.759445 216.530457,164.933609 
	C227.953476,175.237244 241.047897,181.807999 256.986694,180.922729 
	C256.973175,181.021713 256.981323,181.221359 256.981323,181.221359 
	C256.987946,210.785538 256.994568,240.349701 256.995819,270.452057 
	C256.990448,270.990234 256.988770,271.151062 256.523376,271.097961 
	C221.392120,271.035156 186.726273,271.025421 151.586487,271.010437 
	C146.948303,271.003479 142.784073,270.992310 138.619873,271.001831 
	C128.058151,271.026001 121.722641,277.134796 122.098961,287.778412 
	C122.379234,295.705353 122.883224,303.738983 124.461205,311.486023 
	C132.096176,348.969727 152.004547,378.340729 184.008362,399.363098 
	C206.142380,413.902252 230.623337,420.725189 257.011047,420.992737 
	C257.005127,420.998474 257.013855,420.982483 257.013855,420.982483 
z"/>
<path fill="#FFE6B3" opacity="1.000000" stroke="none" 
	d="
M390.531342,1.000000 
	C391.731628,1.874894 392.292206,3.212833 393.220367,3.555635 
	C408.614410,9.241356 417.590149,20.612698 421.463715,36.089928 
	C422.561920,40.477970 421.841003,45.314960 422.007721,49.944141 
	C422.202637,55.357098 422.455933,60.767948 422.403992,66.571335 
	C367.083405,66.976219 312.042725,66.989479 257.000488,66.533905 
	C256.999268,44.376720 256.999634,22.688360 257.000000,1.000000 
	C301.354218,1.000000 345.708466,1.000000 390.531342,1.000000 
z"/>
<path fill="#FFF7CC" opacity="1.000000" stroke="none" 
	d="
M256.531342,1.000000 
	C256.999634,22.688360 256.999268,44.376720 256.999451,66.532539 
	C257.000000,67.000000 257.002991,67.002419 256.534058,66.999016 
	C203.415909,66.994652 150.766708,67.006134 98.117599,66.946259 
	C96.059044,66.943916 94.001266,66.258934 91.943123,65.892029 
	C91.962036,57.776016 91.705261,49.647839 92.062363,41.546726 
	C92.645523,28.317427 98.807983,17.833006 109.307945,10.056497 
	C113.742325,6.772287 118.840347,4.384157 123.318359,1.294360 
	C167.354233,1.000000 211.708450,1.000000 256.531342,1.000000 
z"/>
<path fill="#FFCA80" opacity="1.000000" stroke="none" 
	d="
M257.001038,67.001366 
	C312.042725,66.989479 367.083405,66.976219 422.595276,66.950699 
	C437.097595,73.820778 451.178406,80.604553 465.130798,87.642899 
	C469.565918,89.880219 473.996765,92.382011 477.821472,95.507011 
	C482.352539,99.209229 483.834290,107.319977 481.070160,112.494400 
	C476.444305,121.153908 472.270721,130.302261 466.201782,137.879227 
	C459.072845,146.779602 449.210938,152.777710 438.000549,156.010803 
	C436.458313,156.455566 434.891785,156.816071 433.199524,157.570709 
	C428.438812,158.284180 423.791504,159.118958 419.196777,158.891418 
	C411.949066,158.532471 404.746368,157.331757 397.502045,156.787369 
	C395.863037,156.664200 393.453827,157.238953 392.544159,158.394089 
	C378.935822,175.674835 361.021088,183.017075 339.449951,180.826309 
	C328.002563,179.663696 317.838348,174.487045 308.819916,167.278519 
	C306.487885,165.414536 304.217194,163.473862 301.588226,161.294800 
	C289.197174,172.606537 275.354187,180.951538 257.428894,181.148270 
	C256.981323,181.221359 256.973175,181.021713 256.987061,180.469177 
	C257.001587,142.278549 257.002289,104.640488 257.002991,67.002419 
	C257.002991,67.002419 257.000000,67.000000 257.001038,67.001366 
z"/>
<path fill="#FFBF66" opacity="1.000000" stroke="none" 
	d="
M256.996613,270.910034 
	C291.684601,270.887390 326.366394,270.944946 361.521454,271.472290 
	C361.611786,281.600311 361.228882,291.258545 360.391052,300.941559 
	C338.252808,300.966339 316.569550,300.966339 293.428802,300.966339 
	C303.061493,310.583679 311.495087,319.072052 320.007172,327.480988 
	C326.987396,334.376556 334.061035,341.177582 340.970337,348.339294 
	C333.572632,355.806824 326.297821,362.955597 318.877869,369.795349 
	C303.281158,354.337189 287.829559,339.188019 271.922272,323.592102 
	C271.922272,346.008820 271.922272,367.923096 271.502625,389.895142 
	C266.373627,390.278107 261.664276,390.603302 256.968567,390.465515 
	C256.984436,350.385376 256.986603,310.768219 256.988770,271.151062 
	C256.988770,271.151062 256.990448,270.990234 256.996613,270.910034 
z"/>
<path fill="#E64545" opacity="1.000000" stroke="none" 
	d="
M360.845947,300.916779 
	C361.228882,291.258545 361.611786,281.600311 361.989075,271.474243 
	C366.977386,271.004669 371.972687,270.927917 376.964996,271.018097 
	C385.260468,271.167877 392.012451,277.635071 391.951599,285.870087 
	C391.720337,317.153625 382.200165,345.299713 362.647064,369.819733 
	C344.826477,392.167145 322.183716,407.550323 294.696716,415.589478 
	C282.713470,419.094208 270.491425,421.247955 257.474854,420.988403 
	C257.013855,420.982483 257.005127,420.998474 257.005096,420.525452 
	C257.022705,410.395386 257.040344,400.738342 257.036743,391.040070 
	C257.015472,390.998810 256.954895,390.928497 256.954895,390.928467 
	C261.664276,390.603302 266.373627,390.278107 271.902710,389.890930 
	C274.008850,389.554993 275.292480,389.266815 276.582184,389.009338 
	C292.152069,385.901031 306.582001,380.235779 319.023010,370.104340 
	C326.297821,362.955597 333.572632,355.806824 341.254272,348.167908 
	C345.187195,341.708252 349.550659,336.065918 352.041138,329.691803 
	C355.681152,320.375641 357.977112,310.534271 360.845947,300.916779 
z"/>
<path fill="#FFE6B3" opacity="1.000000" stroke="none" 
	d="
M256.534058,66.999016 
	C257.002289,104.640488 257.001587,142.278549 257.000549,180.370193 
	C241.047897,181.807999 227.953476,175.237244 216.530457,164.933609 
	C213.011429,161.759445 211.030029,161.790726 207.451187,164.891434 
	C193.977509,176.565170 178.269073,182.766800 160.285995,180.841263 
	C147.260498,179.446548 135.573792,173.848862 126.381706,164.581955 
	C120.359146,158.510376 115.238098,155.194885 105.910622,157.590393 
	C98.034241,159.613235 89.225418,158.005447 80.399170,158.073303 
	C72.167061,154.147324 64.142006,150.528015 56.621666,146.059311 
	C47.961941,140.913605 42.552456,132.568649 38.147785,123.821663 
	C35.448372,118.461075 33.414963,112.595108 32.146233,106.726128 
	C30.474628,98.993469 35.241486,94.292793 41.634113,91.070221 
	C58.164894,82.736938 74.730736,74.473221 91.612854,66.036880 
	C94.001266,66.258934 96.059044,66.943916 98.117599,66.946259 
	C150.766708,67.006134 203.415909,66.994652 256.534058,66.999016 
z"/>
<path fill="#FFDF80" opacity="1.000000" stroke="none" 
	d="
M256.523376,271.097961 
	C256.986603,310.768219 256.984436,350.385376 256.968567,390.465515 
	C256.954895,390.928497 257.015472,390.998810 256.572357,391.011353 
	C251.443390,390.636963 246.757538,390.250000 242.049377,389.406891 
	C242.027084,367.261841 242.027084,345.572937 242.027084,322.432251 
	C231.712112,332.754364 222.514664,341.888489 213.399384,351.103943 
	C207.202408,357.369019 201.120529,363.747986 194.649857,370.002563 
	C186.031326,363.747650 178.194351,357.132629 173.231735,347.870026 
	C188.682419,332.275146 203.825211,316.823212 219.400925,300.929474 
	C196.977600,300.929474 175.055557,300.929474 153.071243,300.514343 
	C152.692810,290.404724 152.376633,280.710205 152.060455,271.015686 
	C186.726273,271.025421 221.392120,271.035156 256.523376,271.097961 
z"/>
<path fill="#FF7A4D" opacity="1.000000" stroke="none" 
	d="
M242.071686,389.863037 
	C246.757538,390.250000 251.443390,390.636963 256.593628,391.052612 
	C257.040344,400.738342 257.022705,410.395386 257.011047,420.519714 
	C230.623337,420.725189 206.142380,413.902252 184.008362,399.363098 
	C152.004547,378.340729 132.096176,348.969727 124.461205,311.486023 
	C122.883224,303.738983 122.379234,295.705353 122.098961,287.778412 
	C121.722641,277.134796 128.058151,271.026001 138.619873,271.001831 
	C142.784073,270.992310 146.948303,271.003479 151.586487,271.010468 
	C152.376633,280.710205 152.692810,290.404724 153.035553,300.930084 
	C153.730682,304.977356 154.198883,308.251282 155.102692,311.400177 
	C158.901443,324.634918 163.669708,337.422913 172.923843,348.012939 
	C178.194351,357.132629 186.031326,363.747650 194.814850,370.291016 
	C197.345261,372.079956 199.311279,373.606323 201.411591,374.917603 
	C213.919952,382.726929 227.414993,387.883148 242.071686,389.863037 
z"/>
<path fill="#FF974D" opacity="1.000000" stroke="none" 
	d="
M318.877869,369.795349 
	C306.582001,380.235779 292.152069,385.901031 276.582184,389.009338 
	C275.292480,389.266815 274.008850,389.554993 272.322327,389.833130 
	C271.922272,367.923096 271.922272,346.008820 271.922272,323.592102 
	C287.829559,339.188019 303.281158,354.337189 318.877869,369.795349 
z"/>
<path fill="#FF974D" opacity="1.000000" stroke="none" 
	d="
M360.391022,300.941559 
	C357.977112,310.534271 355.681152,320.375641 352.041138,329.691803 
	C349.550659,336.065918 345.187195,341.708252 341.377167,347.849121 
	C334.061035,341.177582 326.987396,334.376556 320.007172,327.480988 
	C311.495087,319.072052 303.061493,310.583679 293.428802,300.966339 
	C316.569550,300.966339 338.252808,300.966339 360.391022,300.941559 
z"/>
<path fill="#FFBF66" opacity="1.000000" stroke="none" 
	d="
M173.231735,347.870026 
	C163.669708,337.422913 158.901443,324.634918 155.102692,311.400177 
	C154.198883,308.251282 153.730682,304.977356 153.097809,301.345215 
	C175.055557,300.929474 196.977600,300.929474 219.400925,300.929474 
	C203.825211,316.823212 188.682419,332.275146 173.231735,347.870026 
z"/>
<path fill="#FFBF66" opacity="1.000000" stroke="none" 
	d="
M242.049377,389.406860 
	C227.414993,387.883148 213.919952,382.726929 201.411591,374.917603 
	C199.311279,373.606323 197.345261,372.079956 195.152161,370.364502 
	C201.120529,363.747986 207.202408,357.369019 213.399384,351.103943 
	C222.514664,341.888489 231.712112,332.754364 242.027084,322.432251 
	C242.027084,345.572937 242.027084,367.261841 242.049377,389.406860 
z"/>
</svg>