<svg t="1661502558901" class="icon" viewBox="0 0 1024 1024" version="1.1" xmlns="http://www.w3.org/2000/svg" p-id="5999"
     width="200" height="200">
    <path d="M887.5 647.2l0.2-3.2c0.1-2.1 0.2-4.1 0.2-5.9 0-56.3-45.8-102.1-102.1-102.1s-102.1 45.8-102.1 102.1c0 1.8 0.1 3.7 0.2 5.9l0.2 3.2H340.4l0.2-3.2c0.1-2.1 0.2-4.1 0.2-5.9 0-56.3-45.8-102.1-102.1-102.1s-102.1 45.8-102.1 102.1c0 1.8 0.1 3.7 0.2 5.9l0.2 3.2H48.8c-16.9 0-30.7-13.8-30.7-30.7V472c0-9.1 3.3-18 9.3-24.9l119.4-138.7c18.5-22.9 46.1-36 75.7-36h745.2c14.6 0 26.5 11.9 26.5 26.5v316.3c0 17.7-14.4 32-32 32h-74.7z"
          fill="#FBB138" p-id="6000"></path>
    <path d="M967.6 275.3c13 0 23.5 10.5 23.5 23.5V615c0 16-13 29-29 29h-71.4c0.1-2 0.2-4 0.2-6 0-58-47-105.1-105.1-105.1s-105.1 47-105.1 105.1c0 2 0.1 4 0.2 6H343.6c0.1-2 0.2-4 0.2-6 0-58-47-105.1-105.1-105.1s-105.1 47-105.1 105.1c0 2 0.1 4 0.2 6h-85c-15.3 0-27.7-12.4-27.7-27.7V472c0-8.4 3-16.6 8.5-23L149 310.3c17.9-22.1 44.9-35 73.4-35h745.2m0-6H222.4c-30.4 0-58.9 13.5-78 37.2L25 445.1c-6.4 7.5-10 17-10 26.9v144.4c0 18.6 15.1 33.7 33.7 33.7h91.4l-0.4-6.3c-0.1-2.1-0.2-3.9-0.2-5.7 0-54.6 44.4-99.1 99.1-99.1s99.1 44.4 99.1 99.1c0 1.8-0.1 3.6-0.2 5.7l-0.4 6.3H687.2l-0.4-6.3c-0.1-2.1-0.2-3.9-0.2-5.7 0-54.6 44.4-99.1 99.1-99.1s99.1 44.4 99.1 99.1c0 1.8-0.1 3.6-0.2 5.7l-0.4 6.3H962c19.3 0 35-15.7 35-35V298.8c0.1-16.2-13.1-29.5-29.4-29.5z"
          fill="" p-id="6001"></path>
    <path d="M20.1 504.5h972.5v13.3H20.1z" fill="#FCDC30" p-id="6002"></path>
    <path d="M16.2 505.6c-5.7 1.1-9.7 4.8-9.7 9v27.8c0 4.2 4 7.9 9.7 9l5.8 1.1v-47.8l-5.8 0.9zM1002.3 503c4.1-1.1 7-4.9 7-9.1v-28.2c0-4.3-2.9-8-7-9.1l-4.2-1.1v48.8l4.2-1.3zM1002.3 577.1c4.1-1.1 7-4.9 7-9.1v-28.2c0-4.3-2.9-8-7-9.1l-4.2-1.1v48.8l4.2-1.3z"
          fill="#EA3500" p-id="6003"></path>
    <path d="M786.1 641.4m-89 0a89 89 0 1 0 178 0 89 89 0 1 0-178 0Z" fill="#191315" p-id="6004"></path>
    <path d="M786.1 641.4m-82.8 0a82.8 82.8 0 1 0 165.6 0 82.8 82.8 0 1 0-165.6 0Z" fill="#423C3E" p-id="6005"></path>
    <path d="M786.1 641.4m-52.6 0a52.6 52.6 0 1 0 105.2 0 52.6 52.6 0 1 0-105.2 0Z" fill="#CFDDE6" p-id="6006"></path>
    <path d="M786.1 641.4m-22.4 0a22.4 22.4 0 1 0 44.8 0 22.4 22.4 0 1 0-44.8 0Z" fill="#0F0F0E" p-id="6007"></path>
    <path d="M780.5 601.3h11.2c2 0 3.7 2.4 3.7 5.3s-1.7 5.3-3.7 5.3h-11.2c-2 0-3.7-2.4-3.7-5.3 0-3 1.7-5.3 3.7-5.3zM818.1 616.5l5.6 9.7c1 1.8-0.2 4.4-2.7 5.9s-5.4 1.2-6.4-0.6l-5.6-9.7c-1-1.8 0.2-4.4 2.7-5.9 2.5-1.4 5.4-1.2 6.4 0.6zM823.7 656.6l-5.6 9.7c-1 1.8-3.9 2-6.4 0.6-2.5-1.5-3.8-4.1-2.7-5.9l5.6-9.7c1-1.8 3.9-2 6.4-0.6s3.7 4.2 2.7 5.9zM791.7 681.5h-11.2c-2 0-3.7-2.4-3.7-5.3s1.7-5.3 3.7-5.3h11.2c2 0 3.7 2.4 3.7 5.3 0 3-1.6 5.3-3.7 5.3zM754.2 666.3l-5.6-9.7c-1-1.8 0.2-4.4 2.7-5.9s5.4-1.2 6.4 0.6l5.6 9.7c1 1.8-0.2 4.4-2.7 5.9-2.5 1.4-5.4 1.2-6.4-0.6zM748.6 626.2l5.6-9.7c1-1.8 3.9-2 6.4-0.6 2.5 1.5 3.8 4.1 2.7 5.9l-5.6 9.7c-1 1.8-3.9 2-6.4 0.6-2.5-1.5-3.7-4.2-2.7-5.9z"
          fill="#424040" p-id="6008"></path>
    <path d="M238.5 641.4m-89 0a89 89 0 1 0 178 0 89 89 0 1 0-178 0Z" fill="#191315" p-id="6009"></path>
    <path d="M238.5 641.4m-82.8 0a82.8 82.8 0 1 0 165.6 0 82.8 82.8 0 1 0-165.6 0Z" fill="#423C3E" p-id="6010"></path>
    <path d="M238.5 641.4m-52.6 0a52.6 52.6 0 1 0 105.2 0 52.6 52.6 0 1 0-105.2 0Z" fill="#CFDDE6" p-id="6011"></path>
    <path d="M238.5 641.4m-22.4 0a22.4 22.4 0 1 0 44.8 0 22.4 22.4 0 1 0-44.8 0Z" fill="#0F0F0E" p-id="6012"></path>
    <path d="M232.9 601.3h11.2c2 0 3.7 2.4 3.7 5.3s-1.7 5.3-3.7 5.3h-11.2c-2 0-3.7-2.4-3.7-5.3 0-3 1.7-5.3 3.7-5.3zM270.5 616.5l5.6 9.7c1 1.8-0.2 4.4-2.7 5.9s-5.4 1.2-6.4-0.6l-5.6-9.7c-1-1.8 0.2-4.4 2.7-5.9 2.5-1.4 5.4-1.2 6.4 0.6zM276.1 656.6l-5.6 9.7c-1 1.8-3.9 2-6.4 0.6-2.5-1.5-3.8-4.1-2.7-5.9l5.6-9.7c1-1.8 3.9-2 6.4-0.6 2.5 1.5 3.7 4.2 2.7 5.9zM244.1 681.5h-11.2c-2 0-3.7-2.4-3.7-5.3s1.7-5.3 3.7-5.3h11.2c2 0 3.7 2.4 3.7 5.3 0 3-1.7 5.3-3.7 5.3zM206.6 666.3l-5.6-9.7c-1-1.8 0.2-4.4 2.7-5.9s5.4-1.2 6.4 0.6l5.6 9.7c1 1.8-0.2 4.4-2.7 5.9-2.5 1.4-5.4 1.2-6.4-0.6zM201 626.2l5.6-9.7c1-1.8 3.9-2 6.4-0.6s3.8 4.1 2.7 5.9l-5.6 9.7c-1 1.8-3.9 2-6.4 0.6-2.5-1.5-3.8-4.2-2.7-5.9z"
          fill="#424040" p-id="6013"></path>
    <path d="M218.3 601.9h-47.2" fill="#595959" p-id="6014"></path>
    <path d="M975.8 463.1l-921.5-5.3c-13-0.1-20-15.4-11.4-25.3L149 310.4c17.9-22.1 44.9-35 73.4-35h729.9c21.4 0 38.8 17.4 38.8 38.8v133.6c0 8.5-6.9 15.4-15.3 15.3z"
          fill="#FCDC30" p-id="6015"></path>
    <path d="M289.5 445.9H98.7c-15.5 0-24-18.2-14-30.1l92-109.8c7.2-8.6 17.9-13.6 29.1-13.6H290c13.2 0 23.9 10.7 23.9 23.9v105.1c0 13.6-10.9 24.5-24.4 24.5zM465.2 446.1H338.9c-7.4 0-13.4-6-13.4-13.4V306.3c0-7.4 6-13.4 13.4-13.4h126.3c7.4 0 13.4 6 13.4 13.4v126.3c0.1 7.5-5.9 13.5-13.4 13.5zM632.9 446.1H506.6c-7.4 0-13.4-6-13.4-13.4V306.3c0-7.4 6-13.4 13.4-13.4h126.3c7.4 0 13.4 6 13.4 13.4v126.3c0 7.5-6 13.5-13.4 13.5zM800 446.1H673.7c-7.4 0-13.4-6-13.4-13.4V306.3c0-7.4 6-13.4 13.4-13.4H800c7.4 0 13.4 6 13.4 13.4v126.3c0.1 7.5-6 13.5-13.4 13.5zM966.8 446.1H840.5c-7.4 0-13.4-6-13.4-13.4V306.3c0-7.4 6-13.4 13.4-13.4h126.3c7.4 0 13.4 6 13.4 13.4v126.3c0.1 7.5-5.9 13.5-13.4 13.5z"
          fill="#A5E1EF" p-id="6016"></path>
    <path d="M979.9 253.3H606.6c-6.2 0-11.2-5-11.2-11.2v-8.6c0-6.2 5-11.2 11.2-11.2h373.3c6.2 0 11.2 5 11.2 11.2v8.6c0 6.1-5 11.2-11.2 11.2z"
          fill="#323948" p-id="6017"></path>
    <path d="M706.6 235.4H698c-6.2 0-11.2-5-11.2-11.2v-64.9c0-6.2 5-11.2 11.2-11.2h8.6c6.2 0 11.2 5 11.2 11.2v64.9c0 6.2-5 11.2-11.2 11.2zM908 235.4h-8.6c-6.2 0-11.2-5-11.2-11.2v-64.9c0-6.2 5-11.2 11.2-11.2h8.6c6.2 0 11.2 5 11.2 11.2v64.9c0 6.2-5.1 11.2-11.2 11.2z"
          fill="#323948" p-id="6018"></path>
    <path d="M278.1 427.5c-3.1 1-6.6-1-7.5-4.1L239.7 319c-1-3.1 1-6.6 4.1-7.5 3.1-1 6.6 1 7.5 4.1L282.1 420c1.1 3.1-0.9 6.5-4 7.5zM243.1 417.5c-3.1 1-6.6-1-7.5-4.1L204.7 309c-1-3.1 1-6.6 4.1-7.5 3.1-1 6.6 1 7.5 4.1L247.1 410c1.1 3.1-0.9 6.5-4 7.5z"
          fill="#E1FEFF" p-id="6019"></path>
</svg>